<svg width="31" height="32" viewBox="0 0 31 32" fill="none" xmlns="http://www.w3.org/2000/svg">
<rect y="0.5" width="31" height="31" rx="15.5" fill="white"/>
<g clip-path="url(#clip0_36_2002)">
<path d="M9.66663 15.9997C9.66663 13.7999 9.66663 12.6998 10.3503 12.0167C11.034 11.3336 12.1335 11.333 14.3333 11.333H16.6666C18.8664 11.333 19.9665 11.333 20.6496 12.0167C21.3327 12.7003 21.3333 13.7999 21.3333 15.9997V17.1663C21.3333 19.3661 21.3333 20.4663 20.6496 21.1493C19.966 21.8324 18.8664 21.833 16.6666 21.833H14.3333C12.1335 21.833 11.0334 21.833 10.3503 21.1493C9.66721 20.4657 9.66663 19.3661 9.66663 17.1663V15.9997Z" stroke="#111111" stroke-width="1.5"/>
<path d="M12.5833 11.333V10.458M18.4166 11.333V10.458M9.95825 14.2497H21.0416" stroke="#111111" stroke-width="1.5" stroke-linecap="round"/>
<path d="M19 18.9167C19 19.0714 18.9385 19.2197 18.8291 19.3291C18.7197 19.4385 18.5714 19.5 18.4167 19.5C18.262 19.5 18.1136 19.4385 18.0042 19.3291C17.8948 19.2197 17.8333 19.0714 17.8333 18.9167C17.8333 18.762 17.8948 18.6136 18.0042 18.5042C18.1136 18.3948 18.262 18.3333 18.4167 18.3333C18.5714 18.3333 18.7197 18.3948 18.8291 18.5042C18.9385 18.6136 19 18.762 19 18.9167ZM19 16.5833C19 16.738 18.9385 16.8864 18.8291 16.9958C18.7197 17.1052 18.5714 17.1667 18.4167 17.1667C18.262 17.1667 18.1136 17.1052 18.0042 16.9958C17.8948 16.8864 17.8333 16.738 17.8333 16.5833C17.8333 16.4286 17.8948 16.2803 18.0042 16.1709C18.1136 16.0615 18.262 16 18.4167 16C18.5714 16 18.7197 16.0615 18.8291 16.1709C18.9385 16.2803 19 16.4286 19 16.5833ZM16.0833 18.9167C16.0833 19.0714 16.0219 19.2197 15.9125 19.3291C15.8031 19.4385 15.6547 19.5 15.5 19.5C15.3453 19.5 15.1969 19.4385 15.0875 19.3291C14.9781 19.2197 14.9167 19.0714 14.9167 18.9167C14.9167 18.762 14.9781 18.6136 15.0875 18.5042C15.1969 18.3948 15.3453 18.3333 15.5 18.3333C15.6547 18.3333 15.8031 18.3948 15.9125 18.5042C16.0219 18.6136 16.0833 18.762 16.0833 18.9167ZM16.0833 16.5833C16.0833 16.738 16.0219 16.8864 15.9125 16.9958C15.8031 17.1052 15.6547 17.1667 15.5 17.1667C15.3453 17.1667 15.1969 17.1052 15.0875 16.9958C14.9781 16.8864 14.9167 16.738 14.9167 16.5833C14.9167 16.4286 14.9781 16.2803 15.0875 16.1709C15.1969 16.0615 15.3453 16 15.5 16C15.6547 16 15.8031 16.0615 15.9125 16.1709C16.0219 16.2803 16.0833 16.4286 16.0833 16.5833ZM13.1667 18.9167C13.1667 19.0714 13.1052 19.2197 12.9958 19.3291C12.8864 19.4385 12.738 19.5 12.5833 19.5C12.4286 19.5 12.2803 19.4385 12.1709 19.3291C12.0615 19.2197 12 19.0714 12 18.9167C12 18.762 12.0615 18.6136 12.1709 18.5042C12.2803 18.3948 12.4286 18.3333 12.5833 18.3333C12.738 18.3333 12.8864 18.3948 12.9958 18.5042C13.1052 18.6136 13.1667 18.762 13.1667 18.9167ZM13.1667 16.5833C13.1667 16.738 13.1052 16.8864 12.9958 16.9958C12.8864 17.1052 12.738 17.1667 12.5833 17.1667C12.4286 17.1667 12.2803 17.1052 12.1709 16.9958C12.0615 16.8864 12 16.738 12 16.5833C12 16.4286 12.0615 16.2803 12.1709 16.1709C12.2803 16.0615 12.4286 16 12.5833 16C12.738 16 12.8864 16.0615 12.9958 16.1709C13.1052 16.2803 13.1667 16.4286 13.1667 16.5833Z" fill="#111111"/>
</g>
<defs>
<clipPath id="clip0_36_2002">
<rect width="14" height="14" fill="white" transform="translate(8.5 9)"/>
</clipPath>
</defs>
</svg>
